<?xml version="1.0" encoding="utf-8"?>
<!-- Generator: Adobe Illustrator 23.0.4, SVG Export Plug-In . SVG Version: 6.00 Build 0)  -->
<svg version="1.1" id="Ebene_1" xmlns="http://www.w3.org/2000/svg" xmlns:xlink="http://www.w3.org/1999/xlink" x="0px" y="0px"
	 width="1465px" height="396px" viewBox="0 0 1465 396" style="enable-background:new 0 0 1465 396;" xml:space="preserve">
<style type="text/css">
	.st0{fill:#1A5066;}
	.st1{fill:#B0DEF1;}
	.st2{fill:#69B6C9;}
	.st3{fill:#131F23;}
</style>
<g>
	<g>
		<path class="st0" d="M305.7,392.5h4.4c6.1,0,11.1-5,11.1-11.1V10.9c0-6.1-5-11.1-11.1-11.1h-4.4V392.5z"/>
		<g>
			<path class="st0" d="M276.8-0.4h-80c-48.3,0-93.5,17.2-129.3,48.6c-0.5-0.1-1-0.4-1.6-0.5c-6.4-1.3-12.9,0-18.3,3.6
				C36.5,58.7,33.4,73.8,40.9,85c4.7,7.1,12.4,10.9,20.3,10.9c4.6,0,9.3-1.3,13.4-4c9.5-6.3,13.1-18.2,9.4-28.5
				c31.4-26.9,70.8-41.5,112.8-41.5h80c6.1,0,11.1-5,11.1-11.1C287.9,4.6,283-0.4,276.8-0.4z M68.3,73c-0.4,1.9-1.5,3.5-3.1,4.6
				c-3.3,2.2-7.9,1.3-10.1-2c-2.2-3.3-1.3-7.9,2-10.1c1.2-0.8,2.6-1.2,4-1.2c0.5,0,1,0,1.5,0.1c1.9,0.4,3.5,1.5,4.6,3.1
				S68.6,71.1,68.3,73z"/>
			<path class="st0" d="M276.8,288.7h-80c-17.1,0-33.5-4.6-47.8-13.3c1.6-6.4,0.6-13.3-3.3-19.2c-3.6-5.4-9.1-9.1-15.5-10.4
				c-6.4-1.3-12.9,0-18.3,3.6c-11.2,7.4-14.2,22.6-6.8,33.7c4.7,7.1,12.4,10.9,20.3,10.9c2.9,0,5.9-0.6,8.7-1.7
				c18.5,12.1,40,18.6,62.6,18.6h80c6.1,0,11.1-5,11.1-11.1C287.9,293.7,283,288.7,276.8,288.7z M119.4,273.7
				c-2.2-3.3-1.3-7.9,2-10.1c1.2-0.8,2.6-1.2,4-1.2c0.5,0,1,0,1.5,0.1c1.9,0.4,3.5,1.5,4.6,3.1c2.2,3.3,1.3,7.9-2,10.1
				C126.2,277.9,121.6,277,119.4,273.7z"/>
			<path class="st1" d="M287.2,239.7c-3.6-5.4-9.1-9.1-15.4-10.4c-6.4-1.3-12.9,0-18.3,3.6c-4.4,2.9-7.5,7-9.2,11.6h-47.4
				c-26.7,0-48.4-21.7-48.4-48.4s21.7-48.4,48.4-48.4h80c6.1,0,11.1-5,11.1-11.1V92.3c0-6.1-5-11.1-11.1-11.1h-80
				C133.5,81.2,82,132.7,82,196.1c0,13.7,2.4,27.1,7.1,39.9c2.1,5.8,8.5,8.7,14.3,6.6c0.4-0.1,31.9-11.8,31.9-11.8
				c12.1,21.5,35.2,36,61.6,36h49.9c3.6,5.3,9,9,15.3,10.3c1.6,0.3,3.3,0.5,4.9,0.5c4.7,0,9.4-1.4,13.4-4.1
				c5.4-3.6,9.1-9.1,10.4-15.4C292,251.6,290.7,245.1,287.2,239.7z M126.1,196c0,4.7,0.5,9.3,1.4,13.8l-20.8,7.6
				c-1.6-7-2.5-14.1-2.5-21.4c0-51.1,41.6-92.6,92.6-92.6h68.9v22h-68.9C157.8,125.4,126.1,157.1,126.1,196z M270.9,259.2
				c-1.6,1.1-3.5,1.5-5.4,1.1s-3.5-1.5-4.6-3.1c-2.2-3.3-1.3-7.9,2-10.1c1.2-0.8,2.6-1.2,4-1.2c0.5,0,1,0,1.5,0.1
				c1.9,0.4,3.5,1.5,4.6,3.1C275.1,252.5,274.2,257,270.9,259.2z"/>
			<path class="st2" d="M276.8,330.2h-80c-70.4,0-128.1-54.6-133.5-123.7c0.5-0.3,1.1-0.5,1.6-0.9c11.2-7.4,14.3-22.5,6.8-33.7l0,0
				c-1.5-2.3-3.5-4.2-5.5-5.8c13.7-59.6,67-104.2,130.6-104.2h80c6.1,0,11.1-5,11.1-11.1c0-6.2-5-11.1-11.1-11.1h-80
				C141.1,39.7,92.1,69,64.4,113c0,0-25.7-13.7-26-13.8l0,0c-5.4-2.9-12.2-0.8-15.1,4.6c-15,28.2-23,60.1-23,92.3
				c0,108.3,88.1,196.4,196.4,196.4h80c6.1,0,11.1-5,11.1-11.1v-40.1C287.9,335.1,283,330.2,276.8,330.2z M55.4,191.4
				c-1.6,1.1-3.6,1.5-5.5,1.1s-3.5-1.5-4.6-3.1s-1.4-3.6-1.1-5.5c0.4-1.9,1.5-3.5,3.1-4.6c1.2-0.8,2.6-1.2,4-1.2
				c2.4,0,4.7,1.1,6.1,3.2C59.7,184.7,58.8,189.2,55.4,191.4z M265.7,370.2h-68.9c-96,0-174.2-78.1-174.2-174.2
				c0-24.8,5.3-49.5,15.5-71.9l15.8,8.5c-4.2,9.4-7.4,19.3-9.7,29.6c-2.2,0.7-4.3,1.5-6.3,2.8c-5.4,3.6-9.1,9.1-10.4,15.5
				s0,12.9,3.6,18.3c2.5,3.7,5.9,6.5,9.8,8.4c5.7,81,73.4,145.2,155.9,145.2h68.9V370.2z"/>
		</g>
	</g>
	<g>
		<path class="st3" d="M358.9,165.6c0-10.3,1.5-19.6,4.5-27.8s7.2-15.1,12.5-20.8c5.3-5.7,11.5-10,18.6-13s14.7-4.4,22.8-4.4
			c7.7,0,14.7,1.6,20.8,4.8c6.1,3.2,11.2,7,15.2,11.2l-12.6,13.9c-3.2-3.2-6.7-5.8-10.3-7.6c-3.7-1.9-8-2.8-12.9-2.8
			c-5.3,0-10.1,1.1-14.4,3.2s-8.1,5.2-11.2,9.1c-3.2,3.9-5.6,8.7-7.3,14.4c-1.7,5.7-2.6,12.1-2.6,19.1c0,14.4,3.1,25.8,9.4,33.9
			c6.3,8.2,14.7,12.3,25.4,12.3c5.7,0,10.6-1.1,14.8-3.3c4.2-2.2,8.1-5.3,11.7-9.3l12.6,13.7c-5.2,5.9-11,10.5-17.6,13.6
			c-6.6,3.2-13.9,4.7-21.9,4.7c-8.1,0-15.7-1.4-22.6-4.3c-7-2.8-13-7-18.2-12.6c-5.2-5.5-9.2-12.4-12.2-20.5
			C360.4,185.3,358.9,176.1,358.9,165.6z"/>
		<path class="st3" d="M461.4,202.9c0-10.2,4.4-18.1,13.3-23.6s23.1-9.4,42.6-11.6c0-2.4-0.3-4.8-1-7.1c-0.6-2.3-1.6-4.3-3-6
			c-1.4-1.7-3.1-3.1-5.2-4.1s-4.8-1.5-8-1.5c-4.8,0-9.4,0.9-13.8,2.7s-8.7,4-12.9,6.6l-8.1-14.9c5.3-3.4,11.2-6.3,17.7-8.7
			s13.6-3.7,21.2-3.7c12,0,20.9,3.5,26.7,10.5s8.7,17.2,8.7,30.5v56.3h-18.2l-1.7-10.4H519c-4.3,3.6-8.8,6.6-13.6,9.1
			c-4.8,2.4-10.1,3.7-15.8,3.7c-8.4,0-15.2-2.5-20.4-7.6C464,218.1,461.4,211.3,461.4,202.9z M483.1,201.2c0,4.3,1.3,7.4,3.8,9.3
			c2.5,1.9,5.8,2.9,9.8,2.9c3.9,0,7.4-0.9,10.6-2.7s6.6-4.4,10.1-7.7v-21.3c-6.4,0.8-11.9,1.8-16.2,3.1c-4.4,1.3-7.9,2.7-10.5,4.4
			c-2.6,1.6-4.5,3.5-5.7,5.5C483.7,196.7,483.1,198.9,483.1,201.2z"/>
		<path class="st3" d="M558.1,203.3c4.3,3.4,8.5,6,12.7,7.8c4.2,1.9,8.7,2.8,13.6,2.8c5.2,0,9-1.1,11.4-3.2c2.4-2.1,3.7-4.9,3.7-8.2
			c0-1.9-0.6-3.6-1.7-5.1c-1.2-1.5-2.7-2.8-4.6-4s-4.1-2.2-6.6-3.2s-4.9-2-7.3-3c-3.1-1.2-6.3-2.5-9.5-4.1c-3.2-1.5-6.1-3.4-8.6-5.6
			c-2.5-2.2-4.6-4.7-6.2-7.6c-1.6-2.9-2.4-6.3-2.4-10.3c0-8.4,3.1-15.2,9.3-20.5s14.6-7.9,25.3-7.9c6.6,0,12.5,1.2,17.8,3.5
			s9.9,5,13.7,7.9l-10.3,13.5c-3.4-2.4-6.7-4.4-10.2-5.9c-3.4-1.5-7-2.2-10.7-2.2c-4.8,0-8.3,1-10.5,3c-2.3,2-3.4,4.5-3.4,7.4
			c0,1.9,0.5,3.6,1.6,4.9c1.1,1.4,2.5,2.5,4.4,3.6c1.8,1,3.9,2,6.3,2.9c2.4,0.9,4.9,1.8,7.4,2.7c3.2,1.2,6.4,2.5,9.7,4
			c3.2,1.5,6.2,3.3,8.8,5.5s4.8,4.9,6.4,8c1.6,3.2,2.4,6.9,2.4,11.3c0,4.1-0.8,8-2.4,11.5c-1.6,3.5-4,6.6-7.1,9.3
			c-3.1,2.6-7,4.7-11.6,6.3c-4.6,1.5-9.9,2.3-15.9,2.3c-6.6,0-13.1-1.3-19.4-3.8c-6.4-2.5-11.9-5.6-16.5-9.4L558.1,203.3z"/>
		<path class="st3" d="M631,91.9h22.2v35.2l-0.8,18.4c4-3.7,8.4-7.1,13.2-10s10.5-4.4,17.1-4.4c10.2,0,17.6,3.3,22.2,9.8
			c4.6,6.5,7,15.8,7,27.9v59.6h-22.2v-56.7c0-7.9-1.2-13.4-3.5-16.6c-2.3-3.2-6.1-4.8-11.4-4.8c-4.1,0-7.8,1-10.9,3
			c-3.2,2-6.7,4.9-10.7,8.8v66.3H631V91.9z"/>
		<path class="st3" d="M780.3,230.8c-8.3,0-15.8-1.5-22.6-4.5s-12.7-7.4-17.6-13.2c-4.9-5.7-8.7-12.7-11.4-20.8s-4.1-17.3-4.1-27.7
			c0-10.2,1.4-19.3,4.1-27.4c2.7-8.1,6.5-14.9,11.4-20.4s10.8-9.8,17.6-12.8s14.4-4.4,22.6-4.4c8.2,0,15.8,1.5,22.6,4.4
			c6.8,3,12.7,7.2,17.7,12.8c5,5.5,8.8,12.3,11.5,20.4s4.1,17.2,4.1,27.4c0,10.3-1.4,19.5-4.1,27.7c-2.7,8.1-6.5,15.1-11.5,20.8
			s-10.9,10.1-17.7,13.2C796.1,229.3,788.6,230.8,780.3,230.8z M780.3,211.3c5,0,9.5-1.1,13.5-3.3s7.4-5.3,10.3-9.4
			c2.8-4.1,5-9,6.6-14.7c1.5-5.7,2.3-12.2,2.3-19.2c0-14.2-2.9-25.3-8.8-33.4c-5.9-8.1-13.8-12.1-23.9-12.1s-18,4-23.9,12.1
			s-8.8,19.2-8.8,33.4c0,7.1,0.8,13.5,2.3,19.2s3.7,10.6,6.6,14.7c2.8,4.1,6.3,7.2,10.3,9.4C770.8,210.2,775.3,211.3,780.3,211.3z"
			/>
		<path class="st3" d="M850.2,133.5h18.4l1.5,12.8h0.8c4.3-4.1,8.9-7.7,13.8-10.6c5-3,10.7-4.4,17.3-4.4c10.2,0,17.6,3.3,22.2,9.8
			c4.6,6.5,7,15.8,7,27.9v59.6H909v-56.7c0-7.9-1.2-13.4-3.5-16.6c-2.3-3.2-6.1-4.8-11.4-4.8c-4.1,0-7.8,1-10.9,3
			c-3.2,2-6.7,4.9-10.7,8.8v66.3h-22.2L850.2,133.5L850.2,133.5z"/>
		<path class="st3" d="M950.7,102h22.4v107.5h52.6v19h-75L950.7,102L950.7,102z"/>
		<path class="st3" d="M1027.7,181.1c0-7.7,1.2-14.7,3.7-20.9c2.4-6.2,5.7-11.4,9.8-15.7c4.1-4.3,8.7-7.5,14-9.9
			c5.3-2.3,10.7-3.5,16.2-3.5c6.4,0,12.1,1.1,17,3.3s9,5.3,12.3,9.3s5.8,8.8,7.4,14.3c1.7,5.5,2.5,11.6,2.5,18.2
			c0,4.4-0.3,7.9-1,10.4h-60.3c1,8.6,4,15.3,9,19.9c5,4.6,11.3,7,19.1,7c4.1,0,8-0.6,11.5-1.8s7.1-2.9,10.5-5.1l7.5,13.9
			c-4.5,3-9.5,5.4-15.1,7.4c-5.5,1.9-11.3,2.9-17.4,2.9c-6.6,0-12.7-1.1-18.4-3.4c-5.7-2.3-10.6-5.5-14.9-9.8s-7.6-9.4-10-15.6
			C1028.9,195.9,1027.7,189,1027.7,181.1z M1091.3,172.6c0-7.6-1.6-13.5-4.7-17.8c-3.2-4.3-8-6.4-14.6-6.4c-5.7,0-10.6,2-14.9,6.1
			s-6.9,10.1-7.9,18.1L1091.3,172.6L1091.3,172.6z"/>
		<path class="st3" d="M1116.7,181.1c0-7.7,1.1-14.7,3.4-20.9s5.3-11.4,9-15.7s8-7.5,12.9-9.9c4.8-2.3,9.8-3.5,15-3.5
			c5.4,0,10,0.9,13.7,2.8c3.7,1.9,7.5,4.4,11.2,7.6l-0.8-15.3V91.9h22.2v136.5H1185l-1.5-10.3h-0.8c-3.5,3.5-7.5,6.4-12.2,8.9
			c-4.6,2.4-9.5,3.7-14.7,3.7c-12,0-21.5-4.4-28.5-13.1C1120.2,209,1116.7,196.8,1116.7,181.1z M1139.7,180.9
			c0,10.3,1.8,18.2,5.5,23.5c3.7,5.4,9,8,16,8c7.1,0,13.7-3.5,19.9-10.6v-44.3c-3.4-3-6.6-5-9.8-6.2c-3.2-1.2-6.4-1.7-9.6-1.7
			c-6.2,0-11.4,2.7-15.7,8.1C1141.8,163.1,1139.7,170.8,1139.7,180.9z"/>
		<path class="st3" d="M1215.5,245.7c0-4,1.2-7.7,3.5-11.1c2.3-3.4,5.7-6.5,10.1-9.2v-0.8c-2.5-1.5-4.5-3.6-6.1-6.2
			c-1.6-2.6-2.4-5.8-2.4-9.7c0-3.7,1.1-7.1,3.2-10.2c2.1-3,4.5-5.5,7.3-7.4v-0.8c-3.2-2.4-6.1-5.8-8.6-10.2c-2.5-4.3-3.8-9.3-3.8-15
			c0-5.4,1-10.3,3.1-14.5c2.1-4.3,4.8-7.8,8.2-10.7c3.4-2.9,7.4-5.1,11.9-6.6s9.3-2.2,14.3-2.2c2.6,0,5.1,0.2,7.4,0.7
			c2.4,0.5,4.5,1,6.5,1.6h34v16.4h-17.4c1.5,1.8,2.8,4.1,3.9,6.9c1,2.8,1.5,5.8,1.5,9.2c0,5.3-0.9,9.9-2.8,13.9s-4.4,7.3-7.6,10.1
			c-3.2,2.7-7,4.8-11.4,6.2s-9.1,2.1-14.1,2.1c-2.1,0-4.2-0.2-6.4-0.6c-2.2-0.4-4.4-1-6.6-1.9c-1.4,1.3-2.5,2.6-3.4,3.9
			c-0.8,1.3-1.3,3-1.3,5.2c0,2.7,1.1,4.8,3.4,6.4c2.3,1.5,6.3,2.3,12.1,2.3h16.8c11.5,0,20.1,1.8,26,5.5s8.8,9.6,8.8,17.9
			c0,4.6-1.2,9-3.6,13.2c-2.4,4.1-5.8,7.7-10.2,10.6c-4.4,3-9.7,5.3-16,7.1c-6.3,1.7-13.2,2.6-21,2.6c-5.7,0-10.9-0.5-15.8-1.5
			c-4.8-1-9-2.6-12.5-4.6c-3.5-2.1-6.2-4.6-8.2-7.7C1216.5,253.4,1215.5,249.8,1215.5,245.7z M1234.1,242.4c0,4.3,2.2,7.6,6.5,10
			s10.3,3.6,17.9,3.6c7.7,0,14-1.5,18.7-4.5s7.1-6.6,7.1-10.7c0-3.7-1.5-6.3-4.4-7.5c-2.9-1.3-7.1-1.9-12.5-1.9h-13
			c-5.2,0-9.5-0.5-13-1.4C1236.5,233.6,1234.1,237.8,1234.1,242.4z M1256.1,184.4c4.5,0,8.4-1.6,11.6-4.9c3.2-3.3,4.8-8,4.8-14.2
			c0-5.9-1.6-10.5-4.7-13.8c-3.2-3.3-7.1-4.9-11.7-4.9s-8.6,1.6-11.8,4.8c-3.2,3.2-4.8,7.9-4.8,13.9c0,6.2,1.6,10.9,4.8,14.2
			C1247.6,182.7,1251.5,184.4,1256.1,184.4z"/>
		<path class="st3" d="M1303.7,181.1c0-7.7,1.2-14.7,3.7-20.9c2.4-6.2,5.7-11.4,9.8-15.7c4.1-4.3,8.7-7.5,14-9.9
			c5.3-2.3,10.7-3.5,16.2-3.5c6.4,0,12.1,1.1,17,3.3s9,5.3,12.3,9.3s5.8,8.8,7.4,14.3c1.7,5.5,2.5,11.6,2.5,18.2
			c0,4.4-0.3,7.9-1,10.4h-60.3c1,8.6,4,15.3,9,19.9c5,4.6,11.3,7,19.1,7c4.1,0,8-0.6,11.5-1.8s7.1-2.9,10.5-5.1l7.5,13.9
			c-4.5,3-9.5,5.4-15.1,7.4c-5.5,1.9-11.3,2.9-17.4,2.9c-6.6,0-12.7-1.1-18.4-3.4c-5.7-2.3-10.6-5.5-14.9-9.8s-7.6-9.4-10-15.6
			C1304.9,195.9,1303.7,189,1303.7,181.1z M1367.3,172.6c0-7.6-1.6-13.5-4.7-17.8c-3.2-4.3-8-6.4-14.6-6.4c-5.7,0-10.6,2-14.9,6.1
			s-6.9,10.1-7.9,18.1L1367.3,172.6L1367.3,172.6z"/>
		<path class="st3" d="M1398.5,133.5h18.4l1.5,16.8h0.8c3.4-6.2,7.4-10.9,12.2-14.2c4.8-3.3,9.7-4.9,14.7-4.9
			c4.5,0,8.1,0.6,10.8,1.9l-3.9,19.3c-1.7-0.5-3.2-0.9-4.6-1.2s-3.2-0.4-5.2-0.4c-3.7,0-7.7,1.5-11.8,4.4c-4.1,2.9-7.7,8-10.6,15.2
			v58h-22.2v-94.9H1398.5z"/>
	</g>
	<g>
		<path class="st2" d="M373,270.3h7l0.6,5h0.3c1.5-1.6,3.2-3,5-4.1s3.8-1.7,6.1-1.7c2.7,0,4.8,0.6,6.4,1.7s2.8,2.7,3.7,4.8
			c1.7-1.9,3.5-3.4,5.4-4.7c1.9-1.2,4-1.8,6.3-1.8c3.8,0,6.7,1.2,8.5,3.7s2.7,6.1,2.7,10.7v22.8h-8.6V285c0-3-0.5-5.1-1.4-6.4
			c-0.9-1.2-2.3-1.8-4.2-1.8c-2.3,0-4.8,1.5-7.6,4.5v25.4h-8.5V285c0-3-0.5-5.1-1.4-6.4c-0.9-1.2-2.3-1.8-4.3-1.8
			c-2.3,0-4.8,1.5-7.6,4.5v25.4H373V270.3z"/>
		<path class="st2" d="M429.3,288.5c0-3,0.5-5.7,1.4-8.1s2.2-4.4,3.8-6c1.6-1.6,3.4-2.9,5.5-3.7c2.1-0.9,4.2-1.3,6.5-1.3
			s4.4,0.4,6.5,1.3s3.9,2.1,5.5,3.7s2.8,3.6,3.8,6s1.4,5.1,1.4,8.1s-0.5,5.7-1.4,8.1c-1,2.4-2.2,4.4-3.8,6c-1.6,1.6-3.4,2.9-5.5,3.7
			c-2.1,0.8-4.3,1.3-6.5,1.3c-2.3,0-4.4-0.4-6.5-1.3c-2.1-0.8-3.9-2.1-5.5-3.7s-2.9-3.6-3.8-6S429.3,291.5,429.3,288.5z M438,288.5
			c0,3.6,0.8,6.6,2.3,8.8c1.5,2.2,3.6,3.3,6.2,3.3s4.8-1.1,6.3-3.3c1.5-2.2,2.3-5.1,2.3-8.8c0-3.7-0.8-6.6-2.3-8.8
			c-1.5-2.2-3.6-3.3-6.3-3.3s-4.7,1.1-6.2,3.3S438,284.8,438,288.5z"/>
		<path class="st2" d="M468.6,270.3h7l0.6,4.9h0.3c1.6-1.6,3.4-2.9,5.3-4.1c1.9-1.1,4.1-1.7,6.6-1.7c3.9,0,6.7,1.2,8.5,3.7
			s2.7,6.1,2.7,10.7v22.8h-8.5V285c0-3-0.4-5.1-1.3-6.4c-0.9-1.2-2.3-1.8-4.4-1.8c-1.6,0-3,0.4-4.2,1.1c-1.2,0.8-2.6,1.9-4.1,3.4
			v25.4h-8.5V270.3z"/>
		<path class="st2" d="M503.9,288.5c0-3,0.5-5.6,1.4-8s2.2-4.4,3.7-6c1.6-1.6,3.3-2.9,5.4-3.8c2-0.9,4.1-1.3,6.2-1.3
			c2.5,0,4.6,0.4,6.5,1.3c1.9,0.8,3.4,2,4.7,3.5s2.2,3.4,2.8,5.5s1,4.4,1,7c0,1.7-0.1,3-0.4,4h-23.1c0.4,3.3,1.5,5.8,3.4,7.6
			c1.9,1.8,4.3,2.7,7.3,2.7c1.6,0,3-0.2,4.4-0.7s2.7-1.1,4-2l2.9,5.3c-1.7,1.1-3.6,2.1-5.8,2.8c-2.1,0.7-4.3,1.1-6.7,1.1
			c-2.5,0-4.9-0.4-7-1.3c-2.2-0.9-4.1-2.1-5.7-3.7s-2.9-3.6-3.8-6C504.4,294.2,503.9,291.5,503.9,288.5z M528.3,285.3
			c0-2.9-0.6-5.2-1.8-6.8c-1.2-1.6-3.1-2.4-5.6-2.4c-2.2,0-4.1,0.8-5.7,2.3c-1.6,1.6-2.6,3.9-3,6.9H528.3z"/>
		<path class="st2" d="M540.6,314.5c0.5,0.1,0.9,0.2,1.4,0.2c1.9,0,3.5-0.6,4.6-1.7c1.2-1.2,2-2.7,2.6-4.5l0.7-2.3l-14.3-35.9h8.7
			l6.3,17.8c0.5,1.6,1.1,3.2,1.6,5s1,3.5,1.6,5.2h0.3c0.4-1.7,0.9-3.4,1.4-5.1s0.9-3.4,1.4-5.1l5.5-17.8h8.2l-13.2,37.9
			c-0.7,2.1-1.6,3.9-2.4,5.5c-0.9,1.6-1.9,3-3.1,4.2c-1.2,1.2-2.5,2-4,2.7c-1.5,0.6-3.2,0.9-5.2,0.9c-1,0-1.8-0.1-2.6-0.2
			c-0.7-0.1-1.5-0.3-2.1-0.6l1.6-6.7C539.8,314.3,540.2,314.4,540.6,314.5z"/>
		<path class="st2" d="M584.5,254.4h8.5v13.5l-0.2,6.1c1.5-1.3,3.2-2.4,5-3.3c1.8-0.8,3.6-1.3,5.5-1.3c2.3,0,4.3,0.4,6.1,1.3
			s3.3,2.1,4.5,3.7s2.2,3.5,2.8,5.8s1,4.8,1,7.6c0,3.1-0.4,5.9-1.3,8.3c-0.9,2.4-2,4.5-3.4,6.2s-3.1,3-5,3.8
			c-1.9,0.9-3.8,1.3-5.8,1.3c-1.7,0-3.4-0.4-5.1-1.2c-1.7-0.8-3.3-1.9-4.8-3.4H592l-0.7,3.7h-6.7L584.5,254.4L584.5,254.4z
			 M593,297.5c1.3,1.1,2.6,1.9,3.8,2.4s2.4,0.7,3.5,0.7c2.4,0,4.4-1,6.1-3.1c1.6-2.1,2.4-5.2,2.4-9.4c0-3.6-0.6-6.5-1.8-8.5
			s-3.2-3-6-3c-2.6,0-5.2,1.4-8,4.1V297.5z"/>
		<path class="st2" d="M620.3,288.5c0-3,0.5-5.6,1.4-8s2.2-4.4,3.7-6c1.6-1.6,3.3-2.9,5.4-3.8c2-0.9,4.1-1.3,6.2-1.3
			c2.5,0,4.6,0.4,6.5,1.3c1.9,0.8,3.4,2,4.7,3.5s2.2,3.4,2.8,5.5s1,4.4,1,7c0,1.7-0.1,3-0.4,4h-23.1c0.4,3.3,1.5,5.8,3.4,7.6
			c1.9,1.8,4.3,2.7,7.3,2.7c1.6,0,3-0.2,4.4-0.7s2.7-1.1,4-2l2.9,5.3c-1.7,1.1-3.6,2.1-5.8,2.8c-2.1,0.7-4.3,1.1-6.7,1.1
			c-2.5,0-4.9-0.4-7-1.3c-2.2-0.9-4.1-2.1-5.7-3.7s-2.9-3.6-3.8-6C620.7,294.2,620.3,291.5,620.3,288.5z M644.6,285.3
			c0-2.9-0.6-5.2-1.8-6.8c-1.2-1.6-3.1-2.4-5.6-2.4c-2.2,0-4.1,0.8-5.7,2.3c-1.6,1.6-2.6,3.9-3,6.9H644.6z"/>
		<path class="st2" d="M654.1,288.5c0-3,0.5-5.7,1.5-8.1s2.3-4.4,4-6s3.6-2.9,5.8-3.7c2.2-0.9,4.5-1.3,6.9-1.3s4.4,0.4,6.2,1.2
			c1.7,0.8,3.2,1.8,4.5,3l-4.1,5.4c-1-0.8-2-1.5-3-2s-2-0.7-3.2-0.7c-3,0-5.4,1.1-7.2,3.3c-1.8,2.2-2.7,5.1-2.7,8.8
			c0,3.6,0.9,6.6,2.7,8.8c1.8,2.2,4.1,3.3,7,3.3c1.5,0,2.8-0.3,4.1-0.9s2.4-1.3,3.4-2.2l3.5,5.4c-1.7,1.5-3.6,2.7-5.7,3.5
			s-4.1,1.2-6.2,1.2c-2.5,0-4.8-0.4-6.9-1.3c-2.1-0.8-4-2.1-5.6-3.7s-2.8-3.6-3.7-6C654.6,294.2,654.1,291.5,654.1,288.5z"/>
		<path class="st2" d="M682.9,288.5c0-3,0.5-5.7,1.4-8.1s2.2-4.4,3.8-6s3.4-2.9,5.5-3.7c2.1-0.9,4.2-1.3,6.5-1.3s4.4,0.4,6.5,1.3
			s3.9,2.1,5.5,3.7s2.8,3.6,3.8,6s1.4,5.1,1.4,8.1s-0.5,5.7-1.4,8.1c-1,2.4-2.2,4.4-3.8,6s-3.4,2.9-5.5,3.7
			c-2.1,0.8-4.3,1.3-6.5,1.3c-2.3,0-4.4-0.4-6.5-1.3c-2.1-0.8-3.9-2.1-5.5-3.7s-2.9-3.6-3.8-6C683.4,294.2,682.9,291.5,682.9,288.5z
			 M691.6,288.5c0,3.6,0.8,6.6,2.3,8.8c1.5,2.2,3.6,3.3,6.2,3.3s4.8-1.1,6.3-3.3c1.5-2.2,2.3-5.1,2.3-8.8c0-3.7-0.8-6.6-2.3-8.8
			c-1.5-2.2-3.6-3.3-6.3-3.3s-4.7,1.1-6.2,3.3C692.4,281.9,691.6,284.8,691.6,288.5z"/>
		<path class="st2" d="M722.2,270.3h7l0.6,5h0.3c1.5-1.6,3.2-3,5-4.1s3.8-1.7,6.1-1.7c2.7,0,4.8,0.6,6.4,1.7
			c1.6,1.1,2.8,2.7,3.7,4.8c1.7-1.9,3.5-3.4,5.4-4.7c1.9-1.2,4-1.8,6.3-1.8c3.8,0,6.7,1.2,8.5,3.7s2.7,6.1,2.7,10.7v22.8h-8.6V285
			c0-3-0.5-5.1-1.4-6.4c-0.9-1.2-2.3-1.8-4.2-1.8c-2.3,0-4.8,1.5-7.6,4.5v25.4h-8.5V285c0-3-0.5-5.1-1.4-6.4
			c-0.9-1.2-2.3-1.8-4.3-1.8c-2.3,0-4.8,1.5-7.6,4.5v25.4h-8.5L722.2,270.3L722.2,270.3z"/>
		<path class="st2" d="M778.5,288.5c0-3,0.5-5.6,1.4-8s2.2-4.4,3.7-6c1.6-1.6,3.3-2.9,5.4-3.8c2-0.9,4.1-1.3,6.2-1.3
			c2.5,0,4.6,0.4,6.5,1.3c1.9,0.8,3.4,2,4.7,3.5s2.2,3.4,2.8,5.5s1,4.4,1,7c0,1.7-0.1,3-0.4,4h-23.1c0.4,3.3,1.5,5.8,3.4,7.6
			c1.9,1.8,4.3,2.7,7.3,2.7c1.6,0,3-0.2,4.4-0.7s2.7-1.1,4-2l2.9,5.3c-1.7,1.1-3.6,2.1-5.8,2.8c-2.1,0.7-4.3,1.1-6.7,1.1
			c-2.5,0-4.9-0.4-7-1.3c-2.2-0.9-4.1-2.1-5.7-3.7s-2.9-3.6-3.8-6C779,294.2,778.5,291.5,778.5,288.5z M802.8,285.3
			c0-2.9-0.6-5.2-1.8-6.8c-1.2-1.6-3.1-2.4-5.6-2.4c-2.2,0-4.1,0.8-5.7,2.3c-1.6,1.6-2.6,3.9-3,6.9H802.8z"/>
		<path class="st2" d="M815.1,297c1.6,1.3,3.2,2.3,4.8,3s3.3,1.1,5.2,1.1c2,0,3.4-0.4,4.4-1.2c0.9-0.8,1.4-1.9,1.4-3.1
			c0-0.7-0.2-1.4-0.7-2c-0.4-0.6-1-1.1-1.8-1.5c-0.7-0.4-1.6-0.9-2.5-1.2c-0.9-0.4-1.9-0.8-2.8-1.1c-1.2-0.4-2.4-1-3.6-1.6
			c-1.2-0.6-2.3-1.3-3.3-2.1c-1-0.8-1.8-1.8-2.4-2.9c-0.6-1.1-0.9-2.4-0.9-4c0-3.2,1.2-5.8,3.5-7.8c2.4-2,5.6-3,9.7-3
			c2.5,0,4.8,0.4,6.8,1.3s3.8,1.9,5.3,3l-3.9,5.2c-1.3-0.9-2.6-1.7-3.9-2.3c-1.3-0.6-2.7-0.9-4.1-0.9c-1.8,0-3.2,0.4-4,1.1
			c-0.9,0.8-1.3,1.7-1.3,2.8c0,0.7,0.2,1.4,0.6,1.9c0.4,0.5,1,1,1.7,1.4s1.5,0.8,2.4,1.1c0.9,0.3,1.9,0.7,2.8,1
			c1.2,0.4,2.5,0.9,3.7,1.5s2.4,1.3,3.4,2.1c1,0.8,1.8,1.9,2.4,3.1c0.6,1.2,0.9,2.7,0.9,4.3c0,1.6-0.3,3-0.9,4.4
			c-0.6,1.4-1.5,2.5-2.7,3.5s-2.7,1.8-4.4,2.4s-3.8,0.9-6.1,0.9c-2.5,0-5-0.5-7.4-1.4s-4.5-2.2-6.3-3.6L815.1,297z"/>
		<path class="st2" d="M854.8,297c1.6,1.3,3.2,2.3,4.8,3s3.3,1.1,5.2,1.1c2,0,3.4-0.4,4.4-1.2c0.9-0.8,1.4-1.9,1.4-3.1
			c0-0.7-0.2-1.4-0.7-2c-0.4-0.6-1-1.1-1.8-1.5c-0.7-0.4-1.6-0.9-2.5-1.2c-0.9-0.4-1.9-0.8-2.8-1.1c-1.2-0.4-2.4-1-3.6-1.6
			c-1.2-0.6-2.3-1.3-3.3-2.1c-1-0.8-1.8-1.8-2.4-2.9c-0.6-1.1-0.9-2.4-0.9-4c0-3.2,1.2-5.8,3.5-7.8c2.4-2,5.6-3,9.7-3
			c2.5,0,4.8,0.4,6.8,1.3s3.8,1.9,5.3,3L874,279c-1.3-0.9-2.6-1.7-3.9-2.3c-1.3-0.6-2.7-0.9-4.1-0.9c-1.8,0-3.2,0.4-4,1.1
			c-0.9,0.8-1.3,1.7-1.3,2.8c0,0.7,0.2,1.4,0.6,1.9c0.4,0.5,1,1,1.7,1.4s1.5,0.8,2.4,1.1c0.9,0.3,1.9,0.7,2.8,1
			c1.2,0.4,2.5,0.9,3.7,1.5s2.4,1.3,3.4,2.1c1,0.8,1.8,1.9,2.4,3.1c0.6,1.2,0.9,2.7,0.9,4.3c0,1.6-0.3,3-0.9,4.4
			c-0.6,1.4-1.5,2.5-2.7,3.5s-2.7,1.8-4.4,2.4s-3.8,0.9-6.1,0.9c-2.5,0-5-0.5-7.4-1.4s-4.5-2.2-6.3-3.6L854.8,297z"/>
		<path class="st2" d="M882.6,270.3h7l0.6,5h0.3c1.5-1.6,3.2-3,5-4.1s3.8-1.7,6.1-1.7c2.7,0,4.8,0.6,6.4,1.7
			c1.6,1.1,2.8,2.7,3.7,4.8c1.7-1.9,3.5-3.4,5.4-4.7c1.9-1.2,4-1.8,6.3-1.8c3.8,0,6.7,1.2,8.5,3.7s2.7,6.1,2.7,10.7v22.8H926V285
			c0-3-0.5-5.1-1.4-6.4c-0.9-1.2-2.3-1.8-4.2-1.8c-2.3,0-4.8,1.5-7.6,4.5v25.4h-8.5V285c0-3-0.5-5.1-1.4-6.4
			c-0.9-1.2-2.3-1.8-4.3-1.8c-2.3,0-4.8,1.5-7.6,4.5v25.4h-8.5L882.6,270.3L882.6,270.3z"/>
		<path class="st2" d="M939.8,296.9c0-3.9,1.7-6.9,5.1-9c3.4-2.1,8.8-3.6,16.3-4.4c0-0.9-0.1-1.8-0.4-2.7c-0.2-0.9-0.6-1.6-1.1-2.3
			s-1.2-1.2-2-1.6s-1.8-0.6-3.1-0.6c-1.8,0-3.6,0.3-5.3,1s-3.3,1.5-4.9,2.5l-3.1-5.7c2-1.3,4.3-2.4,6.8-3.3s5.2-1.4,8.1-1.4
			c4.6,0,8,1.3,10.2,4s3.3,6.6,3.3,11.6v21.5h-7l-0.7-4h-0.2c-1.6,1.4-3.4,2.5-5.2,3.5s-3.9,1.4-6,1.4c-3.2,0-5.8-1-7.8-2.9
			C940.8,302.6,939.8,300.1,939.8,296.9z M948.1,296.2c0,1.6,0.5,2.8,1.4,3.5c1,0.7,2.2,1.1,3.7,1.1s2.8-0.3,4.1-1
			c1.2-0.7,2.5-1.7,3.8-3v-8.1c-2.5,0.3-4.5,0.7-6.2,1.2s-3,1-4,1.7c-1,0.6-1.7,1.3-2.2,2.1C948.3,294.5,948.1,295.3,948.1,296.2z"
			/>
		<path class="st2" d="M976.4,270.3h7l0.6,6.4h0.3c1.3-2.4,2.8-4.2,4.7-5.4c1.8-1.3,3.7-1.9,5.6-1.9c1.7,0,3.1,0.2,4.1,0.7l-1.5,7.4
			c-0.6-0.2-1.2-0.3-1.8-0.4c-0.5-0.1-1.2-0.1-2-0.1c-1.4,0-2.9,0.6-4.5,1.7s-2.9,3-4.1,5.8v22.2h-8.5v-36.4H976.4z"/>
		<path class="st2" d="M1001.6,277h-5.2v-6.4l5.6-0.4l1-9.9h7.1v9.9h9.2v6.7h-9.2v17.3c0,4.2,1.7,6.4,5.1,6.4c0.6,0,1.3-0.1,2-0.2
			s1.3-0.3,1.8-0.6l1.5,6.3c-1,0.3-2.1,0.7-3.4,0.9c-1.3,0.3-2.6,0.4-4,0.4c-2.1,0-3.9-0.3-5.4-1s-2.6-1.5-3.5-2.7s-1.6-2.5-2-4.1
			s-0.6-3.4-0.6-5.4L1001.6,277L1001.6,277z"/>
	</g>
</g>
</svg>
